<mxfile host="Electron" agent="Mozilla/5.0 (Windows NT 10.0; Win64; x64) AppleWebKit/537.36 (KHTML, like Gecko) draw.io/26.1.1 Chrome/132.0.6834.210 Electron/34.3.3 Safari/537.36" version="26.1.1">
  <diagram name="Página-1" id="oa46tOZ0-K6APtRYbwjj">
    <mxGraphModel dx="1606" dy="965" grid="1" gridSize="10" guides="1" tooltips="1" connect="1" arrows="1" fold="1" page="1" pageScale="1" pageWidth="827" pageHeight="1169" math="0" shadow="0">
      <root>
        <mxCell id="0" />
        <mxCell id="1" parent="0" />
        <mxCell id="HJXG9-HcU-GQR13GZxup-1" value="Usuarios" style="shape=rectangle;whiteSpace=wrap;" vertex="1" parent="1">
          <mxGeometry x="581.5" y="618.13" width="160" height="40" as="geometry" />
        </mxCell>
        <mxCell id="HJXG9-HcU-GQR13GZxup-2" value="Libros" style="shape=rectangle;whiteSpace=wrap;" vertex="1" parent="1">
          <mxGeometry x="600" y="150" width="80" height="40" as="geometry" />
        </mxCell>
        <mxCell id="HJXG9-HcU-GQR13GZxup-3" value="Copias de Libros" style="shape=rectangle;whiteSpace=wrap;" vertex="1" parent="1">
          <mxGeometry x="980" y="150" width="100" height="35" as="geometry" />
        </mxCell>
        <mxCell id="HJXG9-HcU-GQR13GZxup-4" value="Clientes" style="shape=rectangle;whiteSpace=wrap;" vertex="1" parent="1">
          <mxGeometry x="160" y="390" width="140" height="40" as="geometry" />
        </mxCell>
        <mxCell id="HJXG9-HcU-GQR13GZxup-5" value="Préstamos" style="shape=rectangle;whiteSpace=wrap;" vertex="1" parent="1">
          <mxGeometry x="585" y="390" width="160" height="40" as="geometry" />
        </mxCell>
        <mxCell id="HJXG9-HcU-GQR13GZxup-6" value="Pagos" style="shape=rectangle;whiteSpace=wrap;" vertex="1" parent="1">
          <mxGeometry x="1125" y="400" width="90" height="30" as="geometry" />
        </mxCell>
        <mxCell id="HJXG9-HcU-GQR13GZxup-7" value="Lista Negra" style="shape=rectangle;whiteSpace=wrap;" vertex="1" parent="1">
          <mxGeometry x="190" y="623.75" width="80" height="40" as="geometry" />
        </mxCell>
        <mxCell id="HJXG9-HcU-GQR13GZxup-8" value="Auditoría" style="shape=rectangle;whiteSpace=wrap;" vertex="1" parent="1">
          <mxGeometry x="1040" y="628.75" width="60" height="30" as="geometry" />
        </mxCell>
        <mxCell id="HJXG9-HcU-GQR13GZxup-9" value="Id(PK)" style="ellipse;whiteSpace=wrap;html=1;" vertex="1" parent="1">
          <mxGeometry x="506.5" y="568.13" width="60" height="30" as="geometry" />
        </mxCell>
        <mxCell id="HJXG9-HcU-GQR13GZxup-15" value="estado&amp;nbsp;" style="ellipse;whiteSpace=wrap;html=1;" vertex="1" parent="1">
          <mxGeometry x="320" y="445" width="60" height="30" as="geometry" />
        </mxCell>
        <mxCell id="HJXG9-HcU-GQR13GZxup-16" value="nombre" style="ellipse;whiteSpace=wrap;html=1;" vertex="1" parent="1">
          <mxGeometry x="586.5" y="553.13" width="60" height="30" as="geometry" />
        </mxCell>
        <mxCell id="HJXG9-HcU-GQR13GZxup-17" value="apellido" style="ellipse;whiteSpace=wrap;html=1;" vertex="1" parent="1">
          <mxGeometry x="666.5" y="548.13" width="60" height="30" as="geometry" />
        </mxCell>
        <mxCell id="HJXG9-HcU-GQR13GZxup-18" value="email" style="ellipse;whiteSpace=wrap;html=1;" vertex="1" parent="1">
          <mxGeometry x="771.5" y="568.13" width="60" height="30" as="geometry" />
        </mxCell>
        <mxCell id="HJXG9-HcU-GQR13GZxup-19" value="teléfono" style="ellipse;whiteSpace=wrap;html=1;" vertex="1" parent="1">
          <mxGeometry x="756.5" y="679.38" width="60" height="30" as="geometry" />
        </mxCell>
        <mxCell id="HJXG9-HcU-GQR13GZxup-20" value="contraseña" style="ellipse;whiteSpace=wrap;html=1;" vertex="1" parent="1">
          <mxGeometry x="783.5" y="618.13" width="70" height="30" as="geometry" />
        </mxCell>
        <mxCell id="HJXG9-HcU-GQR13GZxup-21" value="ubigeo" style="ellipse;whiteSpace=wrap;html=1;" vertex="1" parent="1">
          <mxGeometry x="586.5" y="709.38" width="60" height="30" as="geometry" />
        </mxCell>
        <mxCell id="HJXG9-HcU-GQR13GZxup-22" value="rol" style="ellipse;whiteSpace=wrap;html=1;" vertex="1" parent="1">
          <mxGeometry x="506.5" y="679.38" width="60" height="30" as="geometry" />
        </mxCell>
        <mxCell id="HJXG9-HcU-GQR13GZxup-23" value="dirección" style="ellipse;whiteSpace=wrap;html=1;" vertex="1" parent="1">
          <mxGeometry x="676.5" y="709.38" width="60" height="30" as="geometry" />
        </mxCell>
        <mxCell id="HJXG9-HcU-GQR13GZxup-41" value="ubigeo" style="ellipse;whiteSpace=wrap;html=1;" vertex="1" parent="1">
          <mxGeometry x="250" y="475" width="60" height="30" as="geometry" />
        </mxCell>
        <mxCell id="HJXG9-HcU-GQR13GZxup-42" value="préstamo_id (PK)" style="ellipse;whiteSpace=wrap;html=1;" vertex="1" parent="1">
          <mxGeometry x="1111.5" y="340" width="117" height="30" as="geometry" />
        </mxCell>
        <mxCell id="HJXG9-HcU-GQR13GZxup-43" value="ubicación_estante" style="ellipse;whiteSpace=wrap;html=1;" vertex="1" parent="1">
          <mxGeometry x="967.5" y="215" width="125" height="35" as="geometry" />
        </mxCell>
        <mxCell id="HJXG9-HcU-GQR13GZxup-44" value="estado&amp;nbsp;" style="ellipse;whiteSpace=wrap;html=1;" vertex="1" parent="1">
          <mxGeometry x="1130" y="152.5" width="80" height="30" as="geometry" />
        </mxCell>
        <mxCell id="HJXG9-HcU-GQR13GZxup-45" value="código_barras" style="ellipse;whiteSpace=wrap;html=1;" vertex="1" parent="1">
          <mxGeometry x="1115" y="95" width="100" height="35" as="geometry" />
        </mxCell>
        <mxCell id="HJXG9-HcU-GQR13GZxup-46" value="libro_id(FK)&amp;nbsp;" style="ellipse;whiteSpace=wrap;html=1;" vertex="1" parent="1">
          <mxGeometry x="1000" y="80" width="80" height="30" as="geometry" />
        </mxCell>
        <mxCell id="HJXG9-HcU-GQR13GZxup-47" value="editorial" style="ellipse;whiteSpace=wrap;html=1;" vertex="1" parent="1">
          <mxGeometry x="480" y="210" width="60" height="30" as="geometry" />
        </mxCell>
        <mxCell id="HJXG9-HcU-GQR13GZxup-48" value="estado&amp;nbsp;" style="ellipse;whiteSpace=wrap;html=1;" vertex="1" parent="1">
          <mxGeometry x="560" y="230" width="60" height="30" as="geometry" />
        </mxCell>
        <mxCell id="HJXG9-HcU-GQR13GZxup-49" value="precio" style="ellipse;whiteSpace=wrap;html=1;" vertex="1" parent="1">
          <mxGeometry x="650" y="220" width="60" height="30" as="geometry" />
        </mxCell>
        <mxCell id="HJXG9-HcU-GQR13GZxup-50" value="ISBN" style="ellipse;whiteSpace=wrap;html=1;" vertex="1" parent="1">
          <mxGeometry x="730" y="180" width="60" height="30" as="geometry" />
        </mxCell>
        <mxCell id="HJXG9-HcU-GQR13GZxup-51" value="categoría" style="ellipse;whiteSpace=wrap;html=1;" vertex="1" parent="1">
          <mxGeometry x="690" y="90" width="60" height="30" as="geometry" />
        </mxCell>
        <mxCell id="HJXG9-HcU-GQR13GZxup-52" value="autor" style="ellipse;whiteSpace=wrap;html=1;" vertex="1" parent="1">
          <mxGeometry x="600" y="90" width="60" height="30" as="geometry" />
        </mxCell>
        <mxCell id="HJXG9-HcU-GQR13GZxup-53" value="título" style="ellipse;whiteSpace=wrap;html=1;" vertex="1" parent="1">
          <mxGeometry x="510" y="100" width="60" height="30" as="geometry" />
        </mxCell>
        <mxCell id="HJXG9-HcU-GQR13GZxup-89" value="dirección" style="ellipse;whiteSpace=wrap;html=1;" vertex="1" parent="1">
          <mxGeometry x="150" y="450" width="60" height="30" as="geometry" />
        </mxCell>
        <mxCell id="HJXG9-HcU-GQR13GZxup-90" value="email" style="ellipse;whiteSpace=wrap;html=1;" vertex="1" parent="1">
          <mxGeometry x="70" y="445" width="60" height="30" as="geometry" />
        </mxCell>
        <mxCell id="HJXG9-HcU-GQR13GZxup-91" value="teléfono" style="ellipse;whiteSpace=wrap;html=1;" vertex="1" parent="1">
          <mxGeometry x="70" y="395" width="60" height="30" as="geometry" />
        </mxCell>
        <mxCell id="HJXG9-HcU-GQR13GZxup-92" value="documento_identidad" style="ellipse;whiteSpace=wrap;html=1;" vertex="1" parent="1">
          <mxGeometry x="240" y="345" width="150" height="30" as="geometry" />
        </mxCell>
        <mxCell id="HJXG9-HcU-GQR13GZxup-93" value="apellido" style="ellipse;whiteSpace=wrap;html=1;" vertex="1" parent="1">
          <mxGeometry x="170" y="345" width="60" height="30" as="geometry" />
        </mxCell>
        <mxCell id="HJXG9-HcU-GQR13GZxup-94" value="nombre" style="ellipse;whiteSpace=wrap;html=1;" vertex="1" parent="1">
          <mxGeometry x="80" y="345" width="60" height="30" as="geometry" />
        </mxCell>
        <mxCell id="HJXG9-HcU-GQR13GZxup-97" value="estado&amp;nbsp;" style="ellipse;whiteSpace=wrap;html=1;" vertex="1" parent="1">
          <mxGeometry x="510" y="450" width="60" height="30" as="geometry" />
        </mxCell>
        <mxCell id="HJXG9-HcU-GQR13GZxup-98" value="fecha_devolución" style="ellipse;whiteSpace=wrap;html=1;" vertex="1" parent="1">
          <mxGeometry x="590" y="460" width="110" height="30" as="geometry" />
        </mxCell>
        <mxCell id="HJXG9-HcU-GQR13GZxup-99" value="fecha_préstamo" style="ellipse;whiteSpace=wrap;html=1;" vertex="1" parent="1">
          <mxGeometry x="710" y="460" width="113" height="30" as="geometry" />
        </mxCell>
        <mxCell id="HJXG9-HcU-GQR13GZxup-100" value="copia_libro_id (FK)&amp;nbsp;" style="ellipse;whiteSpace=wrap;html=1;" vertex="1" parent="1">
          <mxGeometry x="743" y="330" width="130" height="30" as="geometry" />
        </mxCell>
        <mxCell id="HJXG9-HcU-GQR13GZxup-101" value="cliente_id(FK)&amp;nbsp;" style="ellipse;whiteSpace=wrap;html=1;" vertex="1" parent="1">
          <mxGeometry x="600" y="330" width="100" height="30" as="geometry" />
        </mxCell>
        <mxCell id="HJXG9-HcU-GQR13GZxup-102" value="fecha_registro" style="ellipse;whiteSpace=wrap;html=1;" vertex="1" parent="1">
          <mxGeometry x="310" y="670" width="100" height="30" as="geometry" />
        </mxCell>
        <mxCell id="HJXG9-HcU-GQR13GZxup-103" value="motivo" style="ellipse;whiteSpace=wrap;html=1;" vertex="1" parent="1">
          <mxGeometry x="195" y="705" width="70" height="30" as="geometry" />
        </mxCell>
        <mxCell id="HJXG9-HcU-GQR13GZxup-104" value="estado&amp;nbsp;" style="ellipse;whiteSpace=wrap;html=1;" vertex="1" parent="1">
          <mxGeometry x="1040" y="450" width="60" height="30" as="geometry" />
        </mxCell>
        <mxCell id="HJXG9-HcU-GQR13GZxup-105" value="método_pago&amp;nbsp;" style="ellipse;whiteSpace=wrap;html=1;" vertex="1" parent="1">
          <mxGeometry x="1122.5" y="460" width="95" height="40" as="geometry" />
        </mxCell>
        <mxCell id="HJXG9-HcU-GQR13GZxup-106" value="monto" style="ellipse;whiteSpace=wrap;html=1;" vertex="1" parent="1">
          <mxGeometry x="1260" y="400" width="60" height="30" as="geometry" />
        </mxCell>
        <mxCell id="HJXG9-HcU-GQR13GZxup-107" value="acción" style="ellipse;whiteSpace=wrap;html=1;" vertex="1" parent="1">
          <mxGeometry x="1135" y="628.13" width="60" height="30" as="geometry" />
        </mxCell>
        <mxCell id="HJXG9-HcU-GQR13GZxup-108" value="usuario_id &lt;em data-end=&quot;1722&quot; data-start=&quot;1705&quot;&gt;(FK a Usuarios)&lt;/em&gt;" style="ellipse;whiteSpace=wrap;html=1;" vertex="1" parent="1">
          <mxGeometry x="1005" y="558.75" width="170" height="32.5" as="geometry" />
        </mxCell>
        <mxCell id="HJXG9-HcU-GQR13GZxup-109" value="fecha" style="ellipse;whiteSpace=wrap;html=1;" vertex="1" parent="1">
          <mxGeometry x="1111.5" y="679.38" width="60" height="30" as="geometry" />
        </mxCell>
        <mxCell id="HJXG9-HcU-GQR13GZxup-114" value="detalles" style="ellipse;whiteSpace=wrap;html=1;" vertex="1" parent="1">
          <mxGeometry x="980" y="679.38" width="60" height="30" as="geometry" />
        </mxCell>
        <mxCell id="HJXG9-HcU-GQR13GZxup-115" value="cliente_id&amp;nbsp;&lt;em data-end=&quot;1620&quot; data-start=&quot;1603&quot;&gt;(FK a Clientes)&lt;/em&gt;" style="ellipse;whiteSpace=wrap;html=1;" vertex="1" parent="1">
          <mxGeometry x="290" y="585" width="166.5" height="30" as="geometry" />
        </mxCell>
        <mxCell id="HJXG9-HcU-GQR13GZxup-118" value="Id(PK)" style="ellipse;whiteSpace=wrap;html=1;" vertex="1" parent="1">
          <mxGeometry x="465" y="152.5" width="60" height="30" as="geometry" />
        </mxCell>
        <mxCell id="HJXG9-HcU-GQR13GZxup-120" value="Id(PK)" style="ellipse;whiteSpace=wrap;html=1;" vertex="1" parent="1">
          <mxGeometry x="900" y="95" width="60" height="30" as="geometry" />
        </mxCell>
        <mxCell id="HJXG9-HcU-GQR13GZxup-121" value="Id(PK)" style="ellipse;whiteSpace=wrap;html=1;" vertex="1" parent="1">
          <mxGeometry x="500" y="350" width="60" height="30" as="geometry" />
        </mxCell>
        <mxCell id="HJXG9-HcU-GQR13GZxup-123" value="Id(PK)" style="ellipse;whiteSpace=wrap;html=1;" vertex="1" parent="1">
          <mxGeometry x="1040" y="365" width="60" height="30" as="geometry" />
        </mxCell>
        <mxCell id="HJXG9-HcU-GQR13GZxup-124" value="Id(PK)" style="ellipse;whiteSpace=wrap;html=1;" vertex="1" parent="1">
          <mxGeometry x="90" y="628.75" width="60" height="30" as="geometry" />
        </mxCell>
        <mxCell id="HJXG9-HcU-GQR13GZxup-125" value="Id(PK)" style="ellipse;whiteSpace=wrap;html=1;" vertex="1" parent="1">
          <mxGeometry x="945" y="628.13" width="60" height="30" as="geometry" />
        </mxCell>
        <mxCell id="HJXG9-HcU-GQR13GZxup-127" value="Tiene" style="rhombus;whiteSpace=wrap;html=1;" vertex="1" parent="1">
          <mxGeometry x="796" y="143.75" width="79" height="52.5" as="geometry" />
        </mxCell>
        <mxCell id="HJXG9-HcU-GQR13GZxup-132" value="" style="endArrow=none;html=1;rounded=0;entryX=0;entryY=0.5;entryDx=0;entryDy=0;" edge="1" parent="1" target="HJXG9-HcU-GQR13GZxup-127">
          <mxGeometry width="50" height="50" relative="1" as="geometry">
            <mxPoint x="680" y="170" as="sourcePoint" />
            <mxPoint x="730" y="120" as="targetPoint" />
          </mxGeometry>
        </mxCell>
        <mxCell id="HJXG9-HcU-GQR13GZxup-136" value="1" style="edgeLabel;html=1;align=center;verticalAlign=middle;resizable=0;points=[];" vertex="1" connectable="0" parent="HJXG9-HcU-GQR13GZxup-132">
          <mxGeometry x="-0.5761" y="4" relative="1" as="geometry">
            <mxPoint as="offset" />
          </mxGeometry>
        </mxCell>
        <mxCell id="HJXG9-HcU-GQR13GZxup-134" value="" style="endArrow=none;html=1;rounded=0;entryX=0;entryY=0.5;entryDx=0;entryDy=0;exitX=1;exitY=0.5;exitDx=0;exitDy=0;" edge="1" parent="1" source="HJXG9-HcU-GQR13GZxup-127" target="HJXG9-HcU-GQR13GZxup-3">
          <mxGeometry width="50" height="50" relative="1" as="geometry">
            <mxPoint x="470" y="370" as="sourcePoint" />
            <mxPoint x="520" y="320" as="targetPoint" />
          </mxGeometry>
        </mxCell>
        <mxCell id="HJXG9-HcU-GQR13GZxup-137" value="N" style="edgeLabel;html=1;align=center;verticalAlign=middle;resizable=0;points=[];" vertex="1" connectable="0" parent="HJXG9-HcU-GQR13GZxup-134">
          <mxGeometry x="0.572" relative="1" as="geometry">
            <mxPoint as="offset" />
          </mxGeometry>
        </mxCell>
        <mxCell id="HJXG9-HcU-GQR13GZxup-135" style="edgeStyle=orthogonalEdgeStyle;rounded=0;orthogonalLoop=1;jettySize=auto;html=1;exitX=0.5;exitY=1;exitDx=0;exitDy=0;" edge="1" parent="1" source="HJXG9-HcU-GQR13GZxup-50" target="HJXG9-HcU-GQR13GZxup-50">
          <mxGeometry relative="1" as="geometry" />
        </mxCell>
        <mxCell id="HJXG9-HcU-GQR13GZxup-138" value="Genera" style="rhombus;whiteSpace=wrap;html=1;" vertex="1" parent="1">
          <mxGeometry x="920" y="390" width="80" height="45" as="geometry" />
        </mxCell>
        <mxCell id="HJXG9-HcU-GQR13GZxup-139" value="" style="endArrow=none;html=1;rounded=0;" edge="1" parent="1" target="HJXG9-HcU-GQR13GZxup-138">
          <mxGeometry width="50" height="50" relative="1" as="geometry">
            <mxPoint x="746" y="410" as="sourcePoint" />
            <mxPoint x="796" y="360" as="targetPoint" />
          </mxGeometry>
        </mxCell>
        <mxCell id="HJXG9-HcU-GQR13GZxup-142" value="1" style="edgeLabel;html=1;align=center;verticalAlign=middle;resizable=0;points=[];" vertex="1" connectable="0" parent="HJXG9-HcU-GQR13GZxup-139">
          <mxGeometry x="-0.8142" relative="1" as="geometry">
            <mxPoint as="offset" />
          </mxGeometry>
        </mxCell>
        <mxCell id="HJXG9-HcU-GQR13GZxup-140" value="" style="endArrow=none;html=1;rounded=0;entryX=0;entryY=0.5;entryDx=0;entryDy=0;exitX=1;exitY=0.5;exitDx=0;exitDy=0;" edge="1" parent="1" source="HJXG9-HcU-GQR13GZxup-138" target="HJXG9-HcU-GQR13GZxup-6">
          <mxGeometry width="50" height="50" relative="1" as="geometry">
            <mxPoint x="995" y="400" as="sourcePoint" />
            <mxPoint x="1045" y="350" as="targetPoint" />
          </mxGeometry>
        </mxCell>
        <mxCell id="HJXG9-HcU-GQR13GZxup-143" value="1" style="edgeLabel;html=1;align=center;verticalAlign=middle;resizable=0;points=[];" vertex="1" connectable="0" parent="HJXG9-HcU-GQR13GZxup-140">
          <mxGeometry x="0.7104" y="2" relative="1" as="geometry">
            <mxPoint as="offset" />
          </mxGeometry>
        </mxCell>
        <mxCell id="HJXG9-HcU-GQR13GZxup-144" value="Realiza" style="rhombus;whiteSpace=wrap;html=1;" vertex="1" parent="1">
          <mxGeometry x="410" y="370" width="80" height="80" as="geometry" />
        </mxCell>
        <mxCell id="HJXG9-HcU-GQR13GZxup-145" value="" style="endArrow=none;html=1;rounded=0;exitX=1;exitY=0.5;exitDx=0;exitDy=0;entryX=0;entryY=0.5;entryDx=0;entryDy=0;" edge="1" parent="1" source="HJXG9-HcU-GQR13GZxup-144" target="HJXG9-HcU-GQR13GZxup-5">
          <mxGeometry width="50" height="50" relative="1" as="geometry">
            <mxPoint x="470" y="370" as="sourcePoint" />
            <mxPoint x="520" y="320" as="targetPoint" />
          </mxGeometry>
        </mxCell>
        <mxCell id="HJXG9-HcU-GQR13GZxup-148" value="N" style="edgeLabel;html=1;align=center;verticalAlign=middle;resizable=0;points=[];" vertex="1" connectable="0" parent="HJXG9-HcU-GQR13GZxup-145">
          <mxGeometry x="0.6693" y="-1" relative="1" as="geometry">
            <mxPoint as="offset" />
          </mxGeometry>
        </mxCell>
        <mxCell id="HJXG9-HcU-GQR13GZxup-146" value="" style="endArrow=none;html=1;rounded=0;exitX=1;exitY=0.5;exitDx=0;exitDy=0;" edge="1" parent="1" source="HJXG9-HcU-GQR13GZxup-4" target="HJXG9-HcU-GQR13GZxup-144">
          <mxGeometry width="50" height="50" relative="1" as="geometry">
            <mxPoint x="340" y="360" as="sourcePoint" />
            <mxPoint x="410" y="410" as="targetPoint" />
          </mxGeometry>
        </mxCell>
        <mxCell id="HJXG9-HcU-GQR13GZxup-147" value="1" style="edgeLabel;html=1;align=center;verticalAlign=middle;resizable=0;points=[];" vertex="1" connectable="0" parent="HJXG9-HcU-GQR13GZxup-146">
          <mxGeometry x="-0.7455" relative="1" as="geometry">
            <mxPoint as="offset" />
          </mxGeometry>
        </mxCell>
        <mxCell id="HJXG9-HcU-GQR13GZxup-149" value="Pertenece" style="rhombus;whiteSpace=wrap;html=1;" vertex="1" parent="1">
          <mxGeometry x="190" y="510" width="80" height="50" as="geometry" />
        </mxCell>
        <mxCell id="HJXG9-HcU-GQR13GZxup-150" value="" style="endArrow=none;html=1;rounded=0;exitX=0.5;exitY=1;exitDx=0;exitDy=0;entryX=0.5;entryY=0;entryDx=0;entryDy=0;" edge="1" parent="1" source="HJXG9-HcU-GQR13GZxup-4" target="HJXG9-HcU-GQR13GZxup-149">
          <mxGeometry width="50" height="50" relative="1" as="geometry">
            <mxPoint x="470" y="370" as="sourcePoint" />
            <mxPoint x="520" y="320" as="targetPoint" />
          </mxGeometry>
        </mxCell>
        <mxCell id="HJXG9-HcU-GQR13GZxup-153" value="1" style="edgeLabel;html=1;align=center;verticalAlign=middle;resizable=0;points=[];" vertex="1" connectable="0" parent="HJXG9-HcU-GQR13GZxup-150">
          <mxGeometry x="-0.2574" relative="1" as="geometry">
            <mxPoint as="offset" />
          </mxGeometry>
        </mxCell>
        <mxCell id="HJXG9-HcU-GQR13GZxup-151" value="" style="endArrow=none;html=1;rounded=0;exitX=0.5;exitY=1;exitDx=0;exitDy=0;entryX=0.5;entryY=0;entryDx=0;entryDy=0;" edge="1" parent="1" source="HJXG9-HcU-GQR13GZxup-149" target="HJXG9-HcU-GQR13GZxup-7">
          <mxGeometry width="50" height="50" relative="1" as="geometry">
            <mxPoint x="230" y="585" as="sourcePoint" />
            <mxPoint x="520" y="345" as="targetPoint" />
          </mxGeometry>
        </mxCell>
        <mxCell id="HJXG9-HcU-GQR13GZxup-154" value="1" style="edgeLabel;html=1;align=center;verticalAlign=middle;resizable=0;points=[];" vertex="1" connectable="0" parent="HJXG9-HcU-GQR13GZxup-151">
          <mxGeometry x="0.2763" y="-1" relative="1" as="geometry">
            <mxPoint as="offset" />
          </mxGeometry>
        </mxCell>
        <mxCell id="HJXG9-HcU-GQR13GZxup-155" value="" style="endArrow=none;html=1;rounded=0;exitX=0.5;exitY=1;exitDx=0;exitDy=0;entryX=0.896;entryY=0.007;entryDx=0;entryDy=0;entryPerimeter=0;" edge="1" parent="1" source="HJXG9-HcU-GQR13GZxup-92" target="HJXG9-HcU-GQR13GZxup-4">
          <mxGeometry width="50" height="50" relative="1" as="geometry">
            <mxPoint x="470" y="370" as="sourcePoint" />
            <mxPoint x="520" y="320" as="targetPoint" />
          </mxGeometry>
        </mxCell>
        <mxCell id="HJXG9-HcU-GQR13GZxup-164" value="" style="endArrow=none;html=1;rounded=0;entryX=0.75;entryY=1;entryDx=0;entryDy=0;" edge="1" parent="1" source="HJXG9-HcU-GQR13GZxup-49" target="HJXG9-HcU-GQR13GZxup-2">
          <mxGeometry width="50" height="50" relative="1" as="geometry">
            <mxPoint x="678.8199999999999" y="226.25" as="sourcePoint" />
            <mxPoint x="678.8199999999999" y="196.25" as="targetPoint" />
          </mxGeometry>
        </mxCell>
        <mxCell id="HJXG9-HcU-GQR13GZxup-165" value="" style="endArrow=none;html=1;rounded=0;exitX=1;exitY=0;exitDx=0;exitDy=0;entryX=0;entryY=1;entryDx=0;entryDy=0;" edge="1" parent="1" source="HJXG9-HcU-GQR13GZxup-114" target="HJXG9-HcU-GQR13GZxup-8">
          <mxGeometry width="50" height="50" relative="1" as="geometry">
            <mxPoint x="1055" y="703.75" as="sourcePoint" />
            <mxPoint x="1055" y="663.75" as="targetPoint" />
          </mxGeometry>
        </mxCell>
        <mxCell id="HJXG9-HcU-GQR13GZxup-166" value="" style="endArrow=none;html=1;rounded=0;entryX=0.5;entryY=1;entryDx=0;entryDy=0;exitX=0.75;exitY=0;exitDx=0;exitDy=0;" edge="1" parent="1" source="HJXG9-HcU-GQR13GZxup-1" target="HJXG9-HcU-GQR13GZxup-17">
          <mxGeometry width="50" height="50" relative="1" as="geometry">
            <mxPoint x="690.5" y="598.13" as="sourcePoint" />
            <mxPoint x="706.5" y="578.13" as="targetPoint" />
          </mxGeometry>
        </mxCell>
        <mxCell id="HJXG9-HcU-GQR13GZxup-167" value="" style="endArrow=none;html=1;rounded=0;exitX=0.25;exitY=0;exitDx=0;exitDy=0;entryX=0.5;entryY=1;entryDx=0;entryDy=0;" edge="1" parent="1" source="HJXG9-HcU-GQR13GZxup-1" target="HJXG9-HcU-GQR13GZxup-16">
          <mxGeometry width="50" height="50" relative="1" as="geometry">
            <mxPoint x="625.3199999999999" y="658.13" as="sourcePoint" />
            <mxPoint x="625.3199999999999" y="588.13" as="targetPoint" />
          </mxGeometry>
        </mxCell>
        <mxCell id="HJXG9-HcU-GQR13GZxup-168" value="" style="endArrow=none;html=1;rounded=0;exitX=0;exitY=0;exitDx=0;exitDy=0;entryX=1;entryY=1;entryDx=0;entryDy=0;" edge="1" parent="1" source="HJXG9-HcU-GQR13GZxup-109" target="HJXG9-HcU-GQR13GZxup-8">
          <mxGeometry width="50" height="50" relative="1" as="geometry">
            <mxPoint x="1125" y="713.75" as="sourcePoint" />
            <mxPoint x="1101" y="660" as="targetPoint" />
          </mxGeometry>
        </mxCell>
        <mxCell id="HJXG9-HcU-GQR13GZxup-170" value="" style="endArrow=none;html=1;rounded=0;exitX=0;exitY=0;exitDx=0;exitDy=0;entryX=1;entryY=1;entryDx=0;entryDy=0;" edge="1" parent="1" source="HJXG9-HcU-GQR13GZxup-19" target="HJXG9-HcU-GQR13GZxup-1">
          <mxGeometry width="50" height="50" relative="1" as="geometry">
            <mxPoint x="816.5" y="688.13" as="sourcePoint" />
            <mxPoint x="756.5" y="658.13" as="targetPoint" />
          </mxGeometry>
        </mxCell>
        <mxCell id="HJXG9-HcU-GQR13GZxup-171" value="" style="endArrow=none;html=1;rounded=0;exitX=0.5;exitY=0;exitDx=0;exitDy=0;" edge="1" parent="1" source="HJXG9-HcU-GQR13GZxup-21">
          <mxGeometry width="50" height="50" relative="1" as="geometry">
            <mxPoint x="626.5" y="685.63" as="sourcePoint" />
            <mxPoint x="626.5" y="662.38" as="targetPoint" />
          </mxGeometry>
        </mxCell>
        <mxCell id="HJXG9-HcU-GQR13GZxup-172" value="" style="endArrow=none;html=1;rounded=0;entryX=0.625;entryY=1;entryDx=0;entryDy=0;entryPerimeter=0;exitX=0.5;exitY=0;exitDx=0;exitDy=0;" edge="1" parent="1" source="HJXG9-HcU-GQR13GZxup-23" target="HJXG9-HcU-GQR13GZxup-1">
          <mxGeometry width="50" height="50" relative="1" as="geometry">
            <mxPoint x="705.3199999999999" y="685.63" as="sourcePoint" />
            <mxPoint x="676.5" y="658.13" as="targetPoint" />
          </mxGeometry>
        </mxCell>
        <mxCell id="HJXG9-HcU-GQR13GZxup-174" value="" style="endArrow=none;html=1;rounded=0;exitX=1;exitY=0.5;exitDx=0;exitDy=0;entryX=0;entryY=1;entryDx=0;entryDy=0;" edge="1" parent="1" source="HJXG9-HcU-GQR13GZxup-90" target="HJXG9-HcU-GQR13GZxup-4">
          <mxGeometry width="50" height="50" relative="1" as="geometry">
            <mxPoint x="280" y="200" as="sourcePoint" />
            <mxPoint x="320" y="200" as="targetPoint" />
          </mxGeometry>
        </mxCell>
        <mxCell id="HJXG9-HcU-GQR13GZxup-176" value="" style="endArrow=none;html=1;rounded=0;entryX=0;entryY=0.5;entryDx=0;entryDy=0;exitX=1;exitY=0.5;exitDx=0;exitDy=0;" edge="1" parent="1" source="HJXG9-HcU-GQR13GZxup-118" target="HJXG9-HcU-GQR13GZxup-2">
          <mxGeometry width="50" height="50" relative="1" as="geometry">
            <mxPoint x="530" y="180" as="sourcePoint" />
            <mxPoint x="580" y="130" as="targetPoint" />
          </mxGeometry>
        </mxCell>
        <mxCell id="HJXG9-HcU-GQR13GZxup-177" value="" style="endArrow=none;html=1;rounded=0;entryX=0.399;entryY=1.029;entryDx=0;entryDy=0;entryPerimeter=0;exitX=0.358;exitY=0.037;exitDx=0;exitDy=0;exitPerimeter=0;" edge="1" parent="1" source="HJXG9-HcU-GQR13GZxup-5" target="HJXG9-HcU-GQR13GZxup-101">
          <mxGeometry width="50" height="50" relative="1" as="geometry">
            <mxPoint x="630" y="390" as="sourcePoint" />
            <mxPoint x="650" y="360" as="targetPoint" />
          </mxGeometry>
        </mxCell>
        <mxCell id="HJXG9-HcU-GQR13GZxup-178" value="" style="endArrow=none;html=1;rounded=0;entryX=1;entryY=1;entryDx=0;entryDy=0;exitX=0;exitY=0;exitDx=0;exitDy=0;" edge="1" parent="1" source="HJXG9-HcU-GQR13GZxup-1" target="HJXG9-HcU-GQR13GZxup-9">
          <mxGeometry width="50" height="50" relative="1" as="geometry">
            <mxPoint x="346.5" y="173.13" as="sourcePoint" />
            <mxPoint x="366.5" y="143.13" as="targetPoint" />
          </mxGeometry>
        </mxCell>
        <mxCell id="HJXG9-HcU-GQR13GZxup-179" value="" style="endArrow=none;html=1;rounded=0;entryX=0.5;entryY=0;entryDx=0;entryDy=0;exitX=0.25;exitY=1;exitDx=0;exitDy=0;" edge="1" parent="1" source="HJXG9-HcU-GQR13GZxup-4" target="HJXG9-HcU-GQR13GZxup-89">
          <mxGeometry width="50" height="50" relative="1" as="geometry">
            <mxPoint x="290" y="210" as="sourcePoint" />
            <mxPoint x="330" y="210" as="targetPoint" />
          </mxGeometry>
        </mxCell>
        <mxCell id="HJXG9-HcU-GQR13GZxup-180" value="" style="endArrow=none;html=1;rounded=0;exitX=1;exitY=1;exitDx=0;exitDy=0;entryX=0;entryY=0.25;entryDx=0;entryDy=0;" edge="1" parent="1" source="HJXG9-HcU-GQR13GZxup-94" target="HJXG9-HcU-GQR13GZxup-4">
          <mxGeometry width="50" height="50" relative="1" as="geometry">
            <mxPoint x="300" y="220" as="sourcePoint" />
            <mxPoint x="340" y="220" as="targetPoint" />
          </mxGeometry>
        </mxCell>
        <mxCell id="HJXG9-HcU-GQR13GZxup-181" value="" style="endArrow=none;html=1;rounded=0;exitX=0.5;exitY=0;exitDx=0;exitDy=0;" edge="1" parent="1" source="HJXG9-HcU-GQR13GZxup-97" target="HJXG9-HcU-GQR13GZxup-5">
          <mxGeometry width="50" height="50" relative="1" as="geometry">
            <mxPoint x="600" y="435" as="sourcePoint" />
            <mxPoint x="640" y="435" as="targetPoint" />
          </mxGeometry>
        </mxCell>
        <mxCell id="HJXG9-HcU-GQR13GZxup-182" value="" style="endArrow=none;html=1;rounded=0;exitX=1;exitY=0.5;exitDx=0;exitDy=0;entryX=0;entryY=0.5;entryDx=0;entryDy=0;" edge="1" parent="1" source="HJXG9-HcU-GQR13GZxup-1" target="HJXG9-HcU-GQR13GZxup-20">
          <mxGeometry width="50" height="50" relative="1" as="geometry">
            <mxPoint x="756.5" y="620.63" as="sourcePoint" />
            <mxPoint x="806.5" y="633.13" as="targetPoint" />
          </mxGeometry>
        </mxCell>
        <mxCell id="HJXG9-HcU-GQR13GZxup-183" value="" style="endArrow=none;html=1;rounded=0;entryX=0;entryY=0.5;entryDx=0;entryDy=0;exitX=1;exitY=0.5;exitDx=0;exitDy=0;" edge="1" parent="1" source="HJXG9-HcU-GQR13GZxup-91" target="HJXG9-HcU-GQR13GZxup-4">
          <mxGeometry width="50" height="50" relative="1" as="geometry">
            <mxPoint x="130" y="409.58000000000004" as="sourcePoint" />
            <mxPoint x="140" y="410" as="targetPoint" />
          </mxGeometry>
        </mxCell>
        <mxCell id="HJXG9-HcU-GQR13GZxup-184" value="" style="endArrow=none;html=1;rounded=0;entryX=0.5;entryY=1;entryDx=0;entryDy=0;exitX=0.394;exitY=0.007;exitDx=0;exitDy=0;exitPerimeter=0;" edge="1" parent="1" source="HJXG9-HcU-GQR13GZxup-4" target="HJXG9-HcU-GQR13GZxup-93">
          <mxGeometry width="50" height="50" relative="1" as="geometry">
            <mxPoint x="330" y="185" as="sourcePoint" />
            <mxPoint x="350" y="155" as="targetPoint" />
          </mxGeometry>
        </mxCell>
        <mxCell id="HJXG9-HcU-GQR13GZxup-185" value="" style="endArrow=none;html=1;rounded=0;exitX=1;exitY=0;exitDx=0;exitDy=0;entryX=0;entryY=1;entryDx=0;entryDy=0;" edge="1" parent="1" source="HJXG9-HcU-GQR13GZxup-22" target="HJXG9-HcU-GQR13GZxup-1">
          <mxGeometry width="50" height="50" relative="1" as="geometry">
            <mxPoint x="566.5" y="640.63" as="sourcePoint" />
            <mxPoint x="586.5" y="610.63" as="targetPoint" />
          </mxGeometry>
        </mxCell>
        <mxCell id="HJXG9-HcU-GQR13GZxup-186" value="" style="endArrow=none;html=1;rounded=0;exitX=1;exitY=0;exitDx=0;exitDy=0;entryX=0;entryY=0.5;entryDx=0;entryDy=0;" edge="1" parent="1" source="HJXG9-HcU-GQR13GZxup-1" target="HJXG9-HcU-GQR13GZxup-18">
          <mxGeometry width="50" height="50" relative="1" as="geometry">
            <mxPoint x="756.5" y="600.63" as="sourcePoint" />
            <mxPoint x="776.5" y="570.63" as="targetPoint" />
          </mxGeometry>
        </mxCell>
        <mxCell id="HJXG9-HcU-GQR13GZxup-187" value="" style="endArrow=none;html=1;rounded=0;entryX=0.211;entryY=0.873;entryDx=0;entryDy=0;entryPerimeter=0;exitX=0.836;exitY=-0.022;exitDx=0;exitDy=0;exitPerimeter=0;" edge="1" parent="1" source="HJXG9-HcU-GQR13GZxup-5" target="HJXG9-HcU-GQR13GZxup-100">
          <mxGeometry width="50" height="50" relative="1" as="geometry">
            <mxPoint x="725" y="390" as="sourcePoint" />
            <mxPoint x="745" y="360" as="targetPoint" />
          </mxGeometry>
        </mxCell>
        <mxCell id="HJXG9-HcU-GQR13GZxup-188" value="" style="endArrow=none;html=1;rounded=0;exitX=1;exitY=0.5;exitDx=0;exitDy=0;entryX=0;entryY=0;entryDx=0;entryDy=0;" edge="1" parent="1" source="HJXG9-HcU-GQR13GZxup-121" target="HJXG9-HcU-GQR13GZxup-5">
          <mxGeometry width="50" height="50" relative="1" as="geometry">
            <mxPoint x="585" y="360" as="sourcePoint" />
            <mxPoint x="605" y="330" as="targetPoint" />
          </mxGeometry>
        </mxCell>
        <mxCell id="HJXG9-HcU-GQR13GZxup-192" value="" style="endArrow=none;html=1;rounded=0;exitX=0.5;exitY=0;exitDx=0;exitDy=0;entryX=0.38;entryY=1.037;entryDx=0;entryDy=0;entryPerimeter=0;" edge="1" parent="1" source="HJXG9-HcU-GQR13GZxup-98" target="HJXG9-HcU-GQR13GZxup-5">
          <mxGeometry width="50" height="50" relative="1" as="geometry">
            <mxPoint x="640" y="455" as="sourcePoint" />
            <mxPoint x="690" y="405" as="targetPoint" />
          </mxGeometry>
        </mxCell>
        <mxCell id="HJXG9-HcU-GQR13GZxup-193" value="" style="endArrow=none;html=1;rounded=0;exitX=0.75;exitY=1;exitDx=0;exitDy=0;entryX=0.441;entryY=0.127;entryDx=0;entryDy=0;entryPerimeter=0;" edge="1" parent="1" source="HJXG9-HcU-GQR13GZxup-5" target="HJXG9-HcU-GQR13GZxup-99">
          <mxGeometry width="50" height="50" relative="1" as="geometry">
            <mxPoint x="725" y="430" as="sourcePoint" />
            <mxPoint x="775" y="380" as="targetPoint" />
          </mxGeometry>
        </mxCell>
        <mxCell id="HJXG9-HcU-GQR13GZxup-195" value="" style="endArrow=none;html=1;rounded=0;exitX=0.75;exitY=1;exitDx=0;exitDy=0;entryX=0.5;entryY=0;entryDx=0;entryDy=0;" edge="1" parent="1" source="HJXG9-HcU-GQR13GZxup-4" target="HJXG9-HcU-GQR13GZxup-41">
          <mxGeometry width="50" height="50" relative="1" as="geometry">
            <mxPoint x="410" y="530" as="sourcePoint" />
            <mxPoint x="460" y="480" as="targetPoint" />
          </mxGeometry>
        </mxCell>
        <mxCell id="HJXG9-HcU-GQR13GZxup-196" value="" style="endArrow=none;html=1;rounded=0;entryX=1;entryY=1;entryDx=0;entryDy=0;exitX=0;exitY=0.5;exitDx=0;exitDy=0;" edge="1" parent="1" source="HJXG9-HcU-GQR13GZxup-15" target="HJXG9-HcU-GQR13GZxup-4">
          <mxGeometry width="50" height="50" relative="1" as="geometry">
            <mxPoint x="410" y="530" as="sourcePoint" />
            <mxPoint x="460" y="480" as="targetPoint" />
          </mxGeometry>
        </mxCell>
        <mxCell id="HJXG9-HcU-GQR13GZxup-198" value="" style="endArrow=none;html=1;rounded=0;entryX=0.714;entryY=0.186;entryDx=0;entryDy=0;entryPerimeter=0;exitX=0;exitY=1;exitDx=0;exitDy=0;" edge="1" parent="1" source="HJXG9-HcU-GQR13GZxup-2" target="HJXG9-HcU-GQR13GZxup-47">
          <mxGeometry width="50" height="50" relative="1" as="geometry">
            <mxPoint x="410" y="530" as="sourcePoint" />
            <mxPoint x="460" y="480" as="targetPoint" />
          </mxGeometry>
        </mxCell>
        <mxCell id="HJXG9-HcU-GQR13GZxup-199" value="" style="endArrow=none;html=1;rounded=0;entryX=0;entryY=0.5;entryDx=0;entryDy=0;exitX=1;exitY=0.75;exitDx=0;exitDy=0;" edge="1" parent="1" source="HJXG9-HcU-GQR13GZxup-2" target="HJXG9-HcU-GQR13GZxup-50">
          <mxGeometry width="50" height="50" relative="1" as="geometry">
            <mxPoint x="410" y="530" as="sourcePoint" />
            <mxPoint x="460" y="480" as="targetPoint" />
          </mxGeometry>
        </mxCell>
        <mxCell id="HJXG9-HcU-GQR13GZxup-200" value="" style="endArrow=none;html=1;rounded=0;entryX=0.5;entryY=1;entryDx=0;entryDy=0;exitX=1;exitY=0;exitDx=0;exitDy=0;" edge="1" parent="1" source="HJXG9-HcU-GQR13GZxup-2" target="HJXG9-HcU-GQR13GZxup-51">
          <mxGeometry width="50" height="50" relative="1" as="geometry">
            <mxPoint x="410" y="530" as="sourcePoint" />
            <mxPoint x="460" y="480" as="targetPoint" />
          </mxGeometry>
        </mxCell>
        <mxCell id="HJXG9-HcU-GQR13GZxup-201" value="" style="endArrow=none;html=1;rounded=0;exitX=0.5;exitY=0;exitDx=0;exitDy=0;" edge="1" parent="1" source="HJXG9-HcU-GQR13GZxup-2" target="HJXG9-HcU-GQR13GZxup-52">
          <mxGeometry width="50" height="50" relative="1" as="geometry">
            <mxPoint x="410" y="530" as="sourcePoint" />
            <mxPoint x="460" y="480" as="targetPoint" />
          </mxGeometry>
        </mxCell>
        <mxCell id="HJXG9-HcU-GQR13GZxup-202" value="" style="endArrow=none;html=1;rounded=0;entryX=0.5;entryY=1;entryDx=0;entryDy=0;exitX=0;exitY=0;exitDx=0;exitDy=0;" edge="1" parent="1" source="HJXG9-HcU-GQR13GZxup-2" target="HJXG9-HcU-GQR13GZxup-53">
          <mxGeometry width="50" height="50" relative="1" as="geometry">
            <mxPoint x="410" y="530" as="sourcePoint" />
            <mxPoint x="460" y="480" as="targetPoint" />
          </mxGeometry>
        </mxCell>
        <mxCell id="HJXG9-HcU-GQR13GZxup-204" value="" style="endArrow=none;html=1;rounded=0;entryX=0.599;entryY=-0.092;entryDx=0;entryDy=0;entryPerimeter=0;exitX=0.5;exitY=1;exitDx=0;exitDy=0;" edge="1" parent="1" source="HJXG9-HcU-GQR13GZxup-46" target="HJXG9-HcU-GQR13GZxup-3">
          <mxGeometry width="50" height="50" relative="1" as="geometry">
            <mxPoint x="1040" y="120" as="sourcePoint" />
            <mxPoint x="310" y="240" as="targetPoint" />
          </mxGeometry>
        </mxCell>
        <mxCell id="HJXG9-HcU-GQR13GZxup-205" value="" style="endArrow=none;html=1;rounded=0;exitX=0;exitY=0.5;exitDx=0;exitDy=0;entryX=1;entryY=0;entryDx=0;entryDy=0;" edge="1" parent="1" source="HJXG9-HcU-GQR13GZxup-45" target="HJXG9-HcU-GQR13GZxup-3">
          <mxGeometry width="50" height="50" relative="1" as="geometry">
            <mxPoint x="300" y="130" as="sourcePoint" />
            <mxPoint x="370" y="290" as="targetPoint" />
          </mxGeometry>
        </mxCell>
        <mxCell id="HJXG9-HcU-GQR13GZxup-206" value="" style="endArrow=none;html=1;rounded=0;exitX=1;exitY=1;exitDx=0;exitDy=0;entryX=0.25;entryY=0;entryDx=0;entryDy=0;" edge="1" parent="1" source="HJXG9-HcU-GQR13GZxup-120" target="HJXG9-HcU-GQR13GZxup-3">
          <mxGeometry width="50" height="50" relative="1" as="geometry">
            <mxPoint x="343.25" y="65" as="sourcePoint" />
            <mxPoint x="413.25" y="245" as="targetPoint" />
          </mxGeometry>
        </mxCell>
        <mxCell id="HJXG9-HcU-GQR13GZxup-207" value="" style="endArrow=none;html=1;rounded=0;entryX=0;entryY=0.5;entryDx=0;entryDy=0;exitX=1;exitY=0.5;exitDx=0;exitDy=0;" edge="1" parent="1" source="HJXG9-HcU-GQR13GZxup-3" target="HJXG9-HcU-GQR13GZxup-44">
          <mxGeometry width="50" height="50" relative="1" as="geometry">
            <mxPoint x="430" y="430" as="sourcePoint" />
            <mxPoint x="480" y="380" as="targetPoint" />
          </mxGeometry>
        </mxCell>
        <mxCell id="HJXG9-HcU-GQR13GZxup-208" value="" style="endArrow=none;html=1;rounded=0;entryX=0.5;entryY=1;entryDx=0;entryDy=0;exitX=0.5;exitY=0;exitDx=0;exitDy=0;" edge="1" parent="1" source="HJXG9-HcU-GQR13GZxup-43" target="HJXG9-HcU-GQR13GZxup-3">
          <mxGeometry width="50" height="50" relative="1" as="geometry">
            <mxPoint x="430" y="430" as="sourcePoint" />
            <mxPoint x="480" y="380" as="targetPoint" />
          </mxGeometry>
        </mxCell>
        <mxCell id="HJXG9-HcU-GQR13GZxup-209" value="" style="endArrow=none;html=1;rounded=0;entryX=0.903;entryY=0.965;entryDx=0;entryDy=0;exitX=0;exitY=0.5;exitDx=0;exitDy=0;entryPerimeter=0;" edge="1" parent="1" source="HJXG9-HcU-GQR13GZxup-102" target="HJXG9-HcU-GQR13GZxup-7">
          <mxGeometry width="50" height="50" relative="1" as="geometry">
            <mxPoint x="430" y="455" as="sourcePoint" />
            <mxPoint x="480" y="405" as="targetPoint" />
          </mxGeometry>
        </mxCell>
        <mxCell id="HJXG9-HcU-GQR13GZxup-210" value="" style="endArrow=none;html=1;rounded=0;entryX=1;entryY=0.5;entryDx=0;entryDy=0;exitX=0;exitY=0.5;exitDx=0;exitDy=0;" edge="1" parent="1" source="HJXG9-HcU-GQR13GZxup-7" target="HJXG9-HcU-GQR13GZxup-124">
          <mxGeometry width="50" height="50" relative="1" as="geometry">
            <mxPoint x="430" y="455" as="sourcePoint" />
            <mxPoint x="480" y="405" as="targetPoint" />
          </mxGeometry>
        </mxCell>
        <mxCell id="HJXG9-HcU-GQR13GZxup-211" value="" style="endArrow=none;html=1;rounded=0;entryX=0.5;entryY=0;entryDx=0;entryDy=0;exitX=0.5;exitY=1;exitDx=0;exitDy=0;" edge="1" parent="1" source="HJXG9-HcU-GQR13GZxup-7" target="HJXG9-HcU-GQR13GZxup-103">
          <mxGeometry width="50" height="50" relative="1" as="geometry">
            <mxPoint x="415" y="865" as="sourcePoint" />
            <mxPoint x="465" y="815" as="targetPoint" />
          </mxGeometry>
        </mxCell>
        <mxCell id="HJXG9-HcU-GQR13GZxup-213" value="" style="endArrow=none;html=1;rounded=0;entryX=0;entryY=1;entryDx=0;entryDy=0;exitX=1;exitY=0;exitDx=0;exitDy=0;" edge="1" parent="1" source="HJXG9-HcU-GQR13GZxup-7" target="HJXG9-HcU-GQR13GZxup-115">
          <mxGeometry width="50" height="50" relative="1" as="geometry">
            <mxPoint x="425" y="875" as="sourcePoint" />
            <mxPoint x="475" y="825" as="targetPoint" />
          </mxGeometry>
        </mxCell>
        <mxCell id="HJXG9-HcU-GQR13GZxup-215" value="" style="endArrow=none;html=1;rounded=0;entryX=1;entryY=0.5;entryDx=0;entryDy=0;exitX=0;exitY=0.5;exitDx=0;exitDy=0;" edge="1" parent="1" source="HJXG9-HcU-GQR13GZxup-106" target="HJXG9-HcU-GQR13GZxup-6">
          <mxGeometry width="50" height="50" relative="1" as="geometry">
            <mxPoint x="445" y="870" as="sourcePoint" />
            <mxPoint x="495" y="820" as="targetPoint" />
          </mxGeometry>
        </mxCell>
        <mxCell id="HJXG9-HcU-GQR13GZxup-216" value="" style="endArrow=none;html=1;rounded=0;entryX=0.5;entryY=1;entryDx=0;entryDy=0;exitX=0.5;exitY=0;exitDx=0;exitDy=0;" edge="1" parent="1" source="HJXG9-HcU-GQR13GZxup-8" target="HJXG9-HcU-GQR13GZxup-108">
          <mxGeometry width="50" height="50" relative="1" as="geometry">
            <mxPoint x="455" y="883.75" as="sourcePoint" />
            <mxPoint x="505" y="833.75" as="targetPoint" />
          </mxGeometry>
        </mxCell>
        <mxCell id="HJXG9-HcU-GQR13GZxup-217" value="" style="endArrow=none;html=1;rounded=0;entryX=0;entryY=0.5;entryDx=0;entryDy=0;exitX=1;exitY=0.5;exitDx=0;exitDy=0;" edge="1" parent="1" source="HJXG9-HcU-GQR13GZxup-8" target="HJXG9-HcU-GQR13GZxup-107">
          <mxGeometry width="50" height="50" relative="1" as="geometry">
            <mxPoint x="465" y="893.75" as="sourcePoint" />
            <mxPoint x="515" y="843.75" as="targetPoint" />
          </mxGeometry>
        </mxCell>
        <mxCell id="HJXG9-HcU-GQR13GZxup-218" value="" style="endArrow=none;html=1;rounded=0;entryX=1;entryY=0.5;entryDx=0;entryDy=0;exitX=0;exitY=0.5;exitDx=0;exitDy=0;" edge="1" parent="1" source="HJXG9-HcU-GQR13GZxup-8" target="HJXG9-HcU-GQR13GZxup-125">
          <mxGeometry width="50" height="50" relative="1" as="geometry">
            <mxPoint x="475" y="903.75" as="sourcePoint" />
            <mxPoint x="525" y="853.75" as="targetPoint" />
          </mxGeometry>
        </mxCell>
        <mxCell id="HJXG9-HcU-GQR13GZxup-219" value="" style="endArrow=none;html=1;rounded=0;entryX=1;entryY=0.5;entryDx=0;entryDy=0;exitX=0;exitY=0;exitDx=0;exitDy=0;" edge="1" parent="1" source="HJXG9-HcU-GQR13GZxup-6" target="HJXG9-HcU-GQR13GZxup-123">
          <mxGeometry width="50" height="50" relative="1" as="geometry">
            <mxPoint x="455" y="880" as="sourcePoint" />
            <mxPoint x="505" y="830" as="targetPoint" />
          </mxGeometry>
        </mxCell>
        <mxCell id="HJXG9-HcU-GQR13GZxup-220" value="" style="endArrow=none;html=1;rounded=0;entryX=0.5;entryY=1;entryDx=0;entryDy=0;exitX=0.5;exitY=0;exitDx=0;exitDy=0;" edge="1" parent="1" source="HJXG9-HcU-GQR13GZxup-6" target="HJXG9-HcU-GQR13GZxup-42">
          <mxGeometry width="50" height="50" relative="1" as="geometry">
            <mxPoint x="465" y="890" as="sourcePoint" />
            <mxPoint x="515" y="840" as="targetPoint" />
          </mxGeometry>
        </mxCell>
        <mxCell id="HJXG9-HcU-GQR13GZxup-221" value="" style="endArrow=none;html=1;rounded=0;entryX=0.5;entryY=1;entryDx=0;entryDy=0;exitX=0.5;exitY=0;exitDx=0;exitDy=0;" edge="1" parent="1" source="HJXG9-HcU-GQR13GZxup-105" target="HJXG9-HcU-GQR13GZxup-6">
          <mxGeometry width="50" height="50" relative="1" as="geometry">
            <mxPoint x="475" y="900" as="sourcePoint" />
            <mxPoint x="525" y="850" as="targetPoint" />
          </mxGeometry>
        </mxCell>
        <mxCell id="HJXG9-HcU-GQR13GZxup-222" value="" style="endArrow=none;html=1;rounded=0;entryX=0;entryY=1;entryDx=0;entryDy=0;exitX=1;exitY=0;exitDx=0;exitDy=0;" edge="1" parent="1" source="HJXG9-HcU-GQR13GZxup-104" target="HJXG9-HcU-GQR13GZxup-6">
          <mxGeometry width="50" height="50" relative="1" as="geometry">
            <mxPoint x="445" y="870" as="sourcePoint" />
            <mxPoint x="495" y="820" as="targetPoint" />
          </mxGeometry>
        </mxCell>
        <mxCell id="HJXG9-HcU-GQR13GZxup-225" value="" style="endArrow=none;html=1;rounded=0;entryX=0.25;entryY=1;entryDx=0;entryDy=0;exitX=0.5;exitY=0;exitDx=0;exitDy=0;" edge="1" parent="1" source="HJXG9-HcU-GQR13GZxup-48" target="HJXG9-HcU-GQR13GZxup-2">
          <mxGeometry width="50" height="50" relative="1" as="geometry">
            <mxPoint x="650" y="550" as="sourcePoint" />
            <mxPoint x="700" y="500" as="targetPoint" />
          </mxGeometry>
        </mxCell>
      </root>
    </mxGraphModel>
  </diagram>
</mxfile>
